<svg width="40" height="56" viewBox="0 0 40 56" fill="none" xmlns="http://www.w3.org/2000/svg">
<g filter="url(#filter0_d_421021_95)">
<path fill-rule="evenodd" clip-rule="evenodd" d="M28.084 23.6529C28.0393 23.9311 27.9304 24.1959 27.7654 24.4275C27.6004 24.659 27.3836 24.8512 27.1313 24.9898C26.6231 25.3086 26.1785 25.468 25.7286 25.6274C24.7705 25.9488 23.7621 26.2702 22.6956 26.643C21.5708 27.0157 20.5624 27.3885 19.6626 27.6585C18.5404 28.0313 17.4738 28.3526 16.4602 28.7254C15.6976 29.0425 14.9812 29.4556 14.3297 29.9544C13.7237 30.4877 13.1949 31.0983 12.7576 31.7695C12.3077 32.515 12.0245 33.4766 12.0245 34.5975C12.0245 36.842 12.5856 38.5491 13.7104 39.6161C14.8325 40.7396 16.9127 41.2718 19.996 41.2718C23.1402 41.2718 25.2733 40.6856 26.4008 39.5107C27.5203 38.3357 28.0814 36.6826 28.0814 34.5487V23.6529H28.084ZM19.9987 0C25.5036 0 29.545 1.01553 32.1254 3.09802C34.7085 5.12908 36 7.74119 36 10.8366V37.2148C36 38.2817 35.7777 39.4567 35.386 40.737C34.989 42.0225 34.2056 43.1949 32.9696 44.2592C31.7919 45.3313 30.1643 46.2389 28.0867 46.933C26.0091 47.6272 23.3149 48 20.0013 48C16.6931 48 13.9935 47.6272 11.9186 46.933C9.84369 46.2389 8.21338 45.3313 7.03565 44.2592C5.94004 43.3001 5.11006 42.089 4.62195 40.737C4.22496 39.4592 4 38.2843 4 37.2174V33.001C4 30.7565 4.61666 28.674 5.85262 26.8563C7.08858 24.9898 8.82739 23.7095 11.0744 22.9073C12.1965 22.5345 13.488 22.1618 14.9463 21.681C16.4072 21.1976 17.7517 20.7169 19.1015 20.2927C20.4512 19.8633 21.629 19.434 22.6373 19.0586C23.2458 18.8221 23.8639 18.6094 24.49 18.421L25.501 17.9402C25.8979 17.7268 26.287 17.4055 26.6813 16.9787C27.073 16.5545 27.4091 16.0737 27.6923 15.5389C27.9915 14.9599 28.1457 14.3203 28.1423 13.6724V11.9627C28.1464 11.3361 28.011 10.716 27.7453 10.145C27.523 9.5023 27.073 8.91612 26.4564 8.38393C25.8397 7.84917 24.9955 7.42239 23.9871 7.09845C22.9761 6.78222 21.6316 6.62025 20.1125 6.62025C16.9683 6.62025 14.8907 7.21157 13.7686 8.43535C12.8158 9.50488 12.2547 10.8392 12.1436 12.3329C12.1436 12.6543 11.863 12.8677 11.5243 12.8677L4.67753 12.9757C4.51489 12.9764 4.35856 12.9146 4.24256 12.8039C4.12657 12.6931 4.06032 12.5423 4.05823 12.3844V10.8418C4.05823 9.3429 4.34141 7.95458 4.95807 6.62025C5.57737 5.28334 6.53279 4.16497 7.82169 3.20086C9.11322 2.24189 10.7991 1.44231 12.8185 0.907552C14.7849 0.26481 17.1986 0 20.004 0H19.9987Z" fill="#0A3871"/>
<path d="M28.5814 34.5487V23.7093L28.6708 23.1529H28.084H28.0814H27.5814V23.6234C27.5446 23.8068 27.469 23.9818 27.3582 24.1373C27.2374 24.3067 27.0778 24.4487 26.8906 24.5516L26.8778 24.5586L26.8655 24.5663C26.4095 24.8524 26.0119 24.9966 25.5656 25.1547C25.2466 25.2617 24.9192 25.3696 24.5845 25.4799C23.9271 25.6966 23.2413 25.9226 22.5344 26.1696C22.0933 26.3159 21.6778 26.4593 21.2828 26.5956C20.6493 26.8142 20.0685 27.0147 19.5189 27.1796L19.5119 27.1817L19.5049 27.184C19.146 27.3032 18.7883 27.4186 18.4339 27.5328C17.6988 27.7698 16.9776 28.0024 16.2876 28.2562L16.2778 28.2598L16.2683 28.2637C15.4659 28.5973 14.7119 29.0321 14.0258 29.5573L14.0122 29.5677L13.9993 29.579C13.3596 30.1421 12.8009 30.787 12.3386 31.4965L12.3339 31.5038L12.3295 31.5111C11.8292 32.3402 11.5245 33.3922 11.5245 34.5975C11.5245 36.9098 12.1008 38.7751 13.3614 39.9742C14.6364 41.2464 16.899 41.7718 19.996 41.7718C23.1636 41.7718 25.4831 41.1892 26.7616 39.8568L26.7628 39.8556C27.9958 38.5615 28.5814 36.7697 28.5814 34.5487ZM31.8114 3.48711L31.8113 3.48715L31.8163 3.49107C34.2852 5.43229 35.5 7.9024 35.5 10.8366V37.2148C35.5 38.2151 35.2911 39.3381 34.908 40.5904C34.5423 41.7738 33.8179 42.8689 32.6434 43.8804L32.6432 43.8802L32.6331 43.8895C31.5198 44.9029 29.9588 45.7804 27.9282 46.4588C25.9184 47.1304 23.2819 47.5 20.0013 47.5C16.7259 47.5 14.0843 47.1303 12.0772 46.4589C10.049 45.7803 8.48541 44.9028 7.37223 43.8895L7.37229 43.8894L7.36499 43.883C6.33506 42.9814 5.55553 41.8448 5.09605 40.5778C4.71006 39.3328 4.5 38.214 4.5 37.2174V33.001C4.5 30.8518 5.08922 28.8683 6.26609 27.1375L6.26612 27.1375L6.26951 27.1324C7.43729 25.3688 9.08097 24.1509 11.2372 23.3801C11.7719 23.2026 12.3462 23.0247 12.9657 22.8329L13.0322 22.8123C13.6775 22.6124 14.3689 22.3978 15.1029 22.1558L15.1034 22.1557C15.681 21.9646 16.2346 21.7759 16.7751 21.5917C17.6185 21.3044 18.4301 21.0278 19.2514 20.7697L19.253 20.7691C20.6143 20.3361 21.8009 19.9035 22.8118 19.5272L22.8118 19.5272L22.8185 19.5246C23.4148 19.2929 24.0205 19.0844 24.634 18.8998L24.6704 18.8888L24.7047 18.8725L25.7157 18.3918L25.7268 18.3865L25.7377 18.3806C26.1979 18.1333 26.6296 17.7714 27.0486 17.318L27.0487 17.3179C27.4717 16.8597 27.8323 16.343 28.1342 15.7729L28.1342 15.7729L28.1365 15.7685C28.4724 15.1185 28.6459 14.3999 28.6423 13.6712V11.9642C28.6466 11.2723 28.4987 10.5879 28.2092 9.95711C27.9468 9.21643 27.4361 8.56909 26.7836 8.00587C26.0993 7.41254 25.1873 6.95887 24.14 6.62241L24.14 6.62239L24.1364 6.62125C23.0599 6.28454 21.6604 6.12025 20.1125 6.12025C16.9422 6.12025 14.6733 6.70886 13.4001 8.09743L13.4 8.0974L13.3952 8.10276C12.367 9.25706 11.764 10.6962 11.645 12.2958L11.6436 12.3144V12.3329C11.6436 12.3335 11.6436 12.3339 11.6436 12.3344C11.643 12.3349 11.6422 12.3356 11.6413 12.3364C11.6294 12.3462 11.5918 12.3677 11.5243 12.3677V12.3676L11.5164 12.3678L4.6736 12.4757C4.639 12.4754 4.60847 12.4619 4.58785 12.4422C4.56793 12.4232 4.55897 12.4005 4.55823 12.3795V10.8418C4.55823 9.4094 4.82807 8.09345 5.41188 6.83014C5.99111 5.57986 6.88791 4.52388 8.12052 3.60173C9.35297 2.68681 10.9784 1.91206 12.9465 1.39089L12.9602 1.38724L12.9738 1.38281C14.8688 0.76342 17.2224 0.500167 20.0013 0.5C25.4626 0.500327 29.3636 1.51165 31.8114 3.48711Z" stroke="black"/>
</g>
<defs>
<filter id="filter0_d_421021_95" x="0" y="0" width="40" height="48" filterUnits="userSpaceOnUse" color-interpolation-filters="sRGB">
<feFlood flood-opacity="0" result="BackgroundImageFix"/>
<feColorMatrix in="SourceAlpha" type="matrix" values="0 0 0 0 0 0 0 0 0 0 0 0 0 0 0 0 0 0 127 0" result="hardAlpha"/>
<feOffset dy="4"/>
<feGaussianBlur stdDeviation="2"/>
<feComposite in2="hardAlpha" operator="out"/>
<feColorMatrix type="matrix" values="0 0 0 0 0 0 0 0 0 0 0 0 0 0 0 0 0 0 0.25 0"/>
<feBlend mode="normal" in2="BackgroundImageFix" result="effect1_dropShadow_421021_95"/>
<feBlend mode="normal" in="SourceGraphic" in2="effect1_dropShadow_421021_95" result="shape"/>
</filter>
</defs>
</svg>
